<svg id="Layer_1" data-name="Layer 1" xmlns="http://www.w3.org/2000/svg" viewBox="0 0 159.75 31.95"><defs><style>.cls-1{fill:#231f20;}</style></defs><title>Music icons</title><path class="cls-1" d="M40.24,39.08,38,41.34l-3.64-3.61a15.35,15.35,0,0,1-3,2,16,16,0,0,1-3.49,1.24V37.28a12.65,12.65,0,0,0,4-2.09l-7.56-7.56V39.56L15.4,30.69H8.29V20h8.39L8.29,11.65l2.26-2.26Zm-16-20.49-3.71-3.71,3.71-3.71Zm9.91-.71a12.62,12.62,0,0,0-6.37-4.42V9.8A16,16,0,0,1,40.24,25.37a15.44,15.44,0,0,1-.48,3.85,16.05,16.05,0,0,1-1.35,3.52L35.72,30a12.14,12.14,0,0,0-1.54-12.17Zm-2,8.63L27.8,22.13V18.21A8.08,8.08,0,0,1,31,21.11a7.89,7.89,0,0,1,1.22,4.25A9.23,9.23,0,0,1,32.18,26.51Z" transform="translate(-8.29 -9.39)"/><path class="cls-1" d="M65.08,20,74,11.17V39.56l-8.89-8.87H58V20Z" transform="translate(-8.29 -9.39)"/><path class="cls-1" d="M104.14,20,113,11.17V39.56l-8.87-8.87H97V20Zm15.63,9.58a8.11,8.11,0,0,1-3.2,2.9V18.21a8.12,8.12,0,0,1,3.2,2.9,8,8,0,0,1,0,8.51Z" transform="translate(-8.29 -9.39)"/><path class="cls-1" d="M143.2,20l8.87-8.87V39.56l-8.87-8.87h-7.11V20Zm21.29-4.71a16,16,0,0,1-8.88,25.6V37.28A12.62,12.62,0,0,0,162,32.86a12.38,12.38,0,0,0,0-15,12.62,12.62,0,0,0-6.37-4.42V9.8A16.07,16.07,0,0,1,164.48,15.33Zm-5.66,14.29a8.07,8.07,0,0,1-3.22,2.9V18.21a8.08,8.08,0,0,1,3.22,2.9,8,8,0,0,1,0,8.51Z" transform="translate(-8.29 -9.39)"/></svg>